<?xml version="1.0" encoding="UTF-8" standalone="no"?>
<!-- Created with Inkscape (http://www.inkscape.org/) -->

<svg
   xmlns:dc="http://purl.org/dc/elements/1.1/"
   xmlns:cc="http://creativecommons.org/ns#"
   xmlns:rdf="http://www.w3.org/1999/02/22-rdf-syntax-ns#"
   xmlns:svg="http://www.w3.org/2000/svg"
   xmlns="http://www.w3.org/2000/svg"
   xmlns:sodipodi="http://sodipodi.sourceforge.net/DTD/sodipodi-0.dtd"
   xmlns:inkscape="http://www.inkscape.org/namespaces/inkscape"
   id="svg2"
   version="1.1"
   inkscape:version="0.91 r13725"
   width="128"
   height="128"
   viewBox="0 0 128 128"
   sodipodi:docname="animism_rebels.svg"
   inkscape:export-filename=".\animism_rebels.png"
   inkscape:export-xdpi="90"
   inkscape:export-ydpi="90">
  <metadata
     id="metadata8">
    <rdf:RDF>
      <cc:Work
         rdf:about="">
        <dc:format>image/svg+xml</dc:format>
        <dc:type
           rdf:resource="http://purl.org/dc/dcmitype/StillImage" />
        <dc:title />
      </cc:Work>
    </rdf:RDF>
  </metadata>
  <defs
     id="defs6" />
  <sodipodi:namedview
     pagecolor="#ffffff"
     bordercolor="#666666"
     borderopacity="1"
     objecttolerance="10"
     gridtolerance="10"
     guidetolerance="10"
     inkscape:pageopacity="0"
     inkscape:pageshadow="2"
     inkscape:window-width="1103"
     inkscape:window-height="948"
     id="namedview4"
     showgrid="false"
     inkscape:zoom="5.2149125"
     inkscape:cx="64.921162"
     inkscape:cy="69.897462"
     inkscape:window-x="454"
     inkscape:window-y="92"
     inkscape:window-maximized="0"
     inkscape:current-layer="svg2" />
  <path
     style="fill:#000000;fill-rule:evenodd;stroke:none;stroke-width:1px;stroke-linecap:butt;stroke-linejoin:miter;stroke-opacity:1;fill-opacity:1"
     d="M 0,0 128,128 0,128 Z"
     id="path3340"
     inkscape:connector-curvature="0"
     sodipodi:nodetypes="cccc" />
  <path
     style="fill:#773d11;fill-rule:evenodd;stroke:none;stroke-width:1px;stroke-linecap:butt;stroke-linejoin:miter;stroke-opacity:1;fill-opacity:1"
     d="M 0,0 128,128 128,0 Z"
     id="path3342"
     inkscape:connector-curvature="0"
     sodipodi:nodetypes="cccc"
     inkscape:export-xdpi="90"
     inkscape:export-ydpi="90"
     inkscape:export-filename="./ibadi_rebels.png" />
  <path
     style="fill:#ffffff;fill-opacity:1"
     d="m 41.491407,101.26856 c -2.030864,-0.9701 -4.108849,-3.020695 -5.523231,-5.450455 -1.29822,-2.23021 -1.507689,-3.68745 -0.853515,-5.93773 0.684777,-2.35555 -0.129009,-2.552425 3.875989,-4.689515 1.583025,-0.84471 3.462556,-2.10339 4.176735,-2.79707 1.281548,-1.24477 3.096465,-4.66446 5.048239,-9.51195 1.17559,-2.91974 3.661781,-5.64441 6.430667,-7.04751 2.359859,-1.19583 6.881144,-2.3599 9.165935,-2.3599 2.276461,0 6.868803,1.14717 9.219839,2.30313 2.040453,1.00325 2.870335,2.09902 4.580574,6.04816 2.094345,4.83609 0.786673,5.364276 10.057884,9.671916 3.829377,1.77922 5.405086,4.12473 5.123943,7.62721 -0.427803,5.32949 -5.266247,10.950814 -11.18382,12.993364 -3.517078,1.21399 -6.618883,0.60885 -15.146018,-1.45568 -1.97448,-0.47804 -4.24452,-0.73567 -6.567437,-0.74533 -3.342504,-0.0139 -3.840412,0.0857 -8.519918,1.70437 -6.334728,2.19123 -7.052117,1.0006 -9.885866,-0.35301 z M 34.337438,81.34438 C 31.75983,79.9855 30.115228,77.46983 29.32415,73.6758 c -1.226629,-5.88295 1.385883,-11.29036 5.439405,-11.25857 4.759581,0.0373 8.863524,7.38683 7.579243,13.57317 -0.959525,4.62201 -4.677327,7.10847 -8.00536,5.35398 z M 87.39742,77.58554 c -4.977134,-3.36335 -3.343429,-14.33061 2.658683,-17.84809 6.654017,-3.89951 11.428087,4.24511 7.507744,12.80827 -2.148631,4.69324 -7.069448,7.13264 -10.166427,5.03982 z M 45.697328,66.01266 c -3.849268,-2.36412 -6.619973,-8.4079 -6.034961,-13.16415 0.87225,-7.091543 5.883456,-9.825367 10.523519,-5.74102 5.110214,4.49819 6.100113,13.85911 1.908798,18.05042 -1.40475,1.40475 -1.646386,1.5114 -3.421924,1.51016 -1.232043,-7.1e-4 -2.288621,-0.2336 -2.975432,-0.65541 z m 31.239699,-0.3903 C 72.477709,63.7881 70.94942,55.29299 74.00167,49.30595 c 1.480759,-2.904533 3.21224,-4.338608 5.495106,-4.551247 2.341472,-0.218097 3.845085,0.822189 5.250176,3.632367 0.989688,1.97938 1.064989,2.40609 1.064989,6.03495 0,3.53518 -0.09427,4.10666 -0.99546,6.03494 -1.975002,4.22589 -5.132036,6.2955 -7.879454,5.1654 z M 29.904194,60.88873 c 0.0048,-2.49724 0.635228,-5.18599 1.761601,-7.51276 0.849947,-1.75576 3.545391,-5.29847 3.821343,-5.02252 0.09687,0.0969 -0.103071,1.5818 -0.444318,3.29985 -0.446153,2.2462 -0.566143,4.03668 -0.427135,6.37364 0,0 -0.0068,1.930639 -0.477839,2.530828 -0.471082,0.60019 -1.051568,1.196247 -1.409279,1.261507 -1.095549,0.499994 -1.549143,0.556385 -2.349192,0.317426 -0.511516,-0.294673 -0.475194,-1.247971 -0.475194,-1.247971 z m 31.400925,-1.10628 c -1.519286,-0.66188 -3.120013,-2.3653 -4.098987,-4.36195 -0.729969,-1.4888 -0.839042,-2.2334 -0.848292,-5.79094 -0.0098,-3.760659 0.06746,-4.241446 0.979856,-6.099409 1.754942,-3.573683 4.440463,-5.208573 7.344814,-4.47137 1.938228,0.491975 4.075676,2.924005 4.895225,5.569884 0.724449,2.338845 0.805487,6.983375 0.159468,9.139215 -0.71803,2.39613 -2.552138,4.81932 -4.324036,5.71284 -1.803535,0.90947 -2.581825,0.96663 -4.108048,0.30173 z m 34.09173,-2.00739 C 94.093306,57.319427 93.226762,57.322643 92.537456,56.173811 91.985541,55.253961 92.16345,53.09109 92.16345,53.09109 c -0.02651,-2.75525 -0.254685,-4.79163 -0.735851,-6.567298 -0.383581,-1.41555 -0.579549,-2.573726 -0.435485,-2.573726 0.628266,0 3.311444,3.560634 4.420031,5.865484 1.051727,2.18663 1.9039,4.933779 1.930152,7.253159 -0.03934,0.514483 -0.140611,1.560861 -1.945449,0.706801 z M 41.590429,43.590916 c 0.551855,-3.851264 0.965281,-4.344553 1.887455,-6.187348 0.964828,-1.928032 4.604759,-6.233829 5.269804,-6.233829 0.153896,0 -0.09001,1.087318 -0.542012,2.416262 -1.055595,3.103575 -1.746756,6.985446 -1.57131,8.825174 0,0 -0.190355,0.696005 -0.533415,1.156676 -0.34306,0.460672 -1.286221,0.6753 -1.286221,0.6753 -1.076556,0.213215 -2.191142,0.695479 -2.774477,0.625764 -0.583335,-0.06972 -0.449824,-1.277999 -0.449824,-1.277999 z m 40.139052,-0.0138 c -0.878617,-0.359632 -2.021171,-0.407156 -2.307478,-0.672909 -0.380836,-0.353496 -0.702701,-0.219161 -0.585286,-3.441316 0.11362,-3.118103 -0.177037,-5.241107 -1.256898,-9.180643 -0.159652,-0.582434 0.0086,-0.518655 0.936481,0.354997 1.582678,1.490177 3.331838,4.248815 4.226103,6.665089 0.808441,2.184373 1.207912,5.808064 0.66209,6.102559 -0.545822,0.294495 -0.796396,0.531856 -1.675012,0.172223 z m -16.356103,-6.20446 c -0.639003,-0.0512 -3.055728,-0.267085 -3.750949,-0.213936 -0.706787,0.05403 -1.089378,-0.412329 -0.60938,-2.97151 0.507905,-2.707966 2.889526,-9.762405 3.295848,-9.762405 0.327048,0 2.079087,7.104366 2.320002,9.407409 0.102122,0.97624 -0.220637,2.14007 -0.365687,2.762064 -0.221649,0.950482 -0.287862,0.826607 -0.889834,0.778378 z"
     id="path4148"
     inkscape:connector-curvature="0"
     sodipodi:nodetypes="sssssssssssssssssssssssssscsssccssssssscscsszccccsssssssssccsssscccssssszszssssssszssssssss" />
</svg>
