<?xml version="1.0" encoding="UTF-8" standalone="no"?>
<!-- Created with Inkscape (http://www.inkscape.org/) -->

<svg
   xmlns:dc="http://purl.org/dc/elements/1.1/"
   xmlns:cc="http://creativecommons.org/ns#"
   xmlns:rdf="http://www.w3.org/1999/02/22-rdf-syntax-ns#"
   xmlns:svg="http://www.w3.org/2000/svg"
   xmlns="http://www.w3.org/2000/svg"
   xmlns:sodipodi="http://sodipodi.sourceforge.net/DTD/sodipodi-0.dtd"
   xmlns:inkscape="http://www.inkscape.org/namespaces/inkscape"
   id="svg2"
   version="1.1"
   inkscape:version="0.91 r13725"
   width="128"
   height="128"
   viewBox="0 0 128 128"
   sodipodi:docname="anti_tax_rebels.svg"
   inkscape:export-filename=".\anti_tax_rebels.png"
   inkscape:export-xdpi="90"
   inkscape:export-ydpi="90">
  <metadata
     id="metadata8">
    <rdf:RDF>
      <cc:Work
         rdf:about="">
        <dc:format>image/svg+xml</dc:format>
        <dc:type
           rdf:resource="http://purl.org/dc/dcmitype/StillImage" />
        <dc:title />
      </cc:Work>
    </rdf:RDF>
  </metadata>
  <defs
     id="defs6" />
  <sodipodi:namedview
     pagecolor="#ffffff"
     bordercolor="#666666"
     borderopacity="1"
     objecttolerance="10"
     gridtolerance="10"
     guidetolerance="10"
     inkscape:pageopacity="0"
     inkscape:pageshadow="2"
     inkscape:window-width="1268"
     inkscape:window-height="999"
     id="namedview4"
     showgrid="false"
     inkscape:zoom="5.2149125"
     inkscape:cx="66.58208"
     inkscape:cy="65.316017"
     inkscape:window-x="377"
     inkscape:window-y="51"
     inkscape:window-maximized="0"
     inkscape:current-layer="svg2" />
  <path
     style="fill:#000000;fill-rule:evenodd;stroke:none;stroke-width:1px;stroke-linecap:butt;stroke-linejoin:miter;stroke-opacity:1;fill-opacity:1"
     d="M 0,0 128,128 0,128 Z"
     id="path3340"
     inkscape:connector-curvature="0"
     sodipodi:nodetypes="cccc" />
  <path
     style="fill:#668d0e;fill-rule:evenodd;stroke:none;stroke-width:1px;stroke-linecap:butt;stroke-linejoin:miter;stroke-opacity:1;fill-opacity:1"
     d="M 0,0 128,128 128,0 Z"
     id="path3342"
     inkscape:connector-curvature="0"
     sodipodi:nodetypes="cccc"
     inkscape:export-xdpi="90"
     inkscape:export-ydpi="90"
     inkscape:export-filename="./anti_tax_rebels.png" />
  <path
     style="fill:#ffffff;fill-opacity:1"
     d="m 19.216781,110.19855 c -0.49645,-1.29373 9.59213,-14.315644 28.504692,-36.792614 5.110356,-6.07349 11.939401,-14.021239 12.855503,-15.672949 -1.117795,-1.516127 2.43727,-4.90817 3.867574,-6.509827 L 68.544787,46.631706 64.94032,41.67859 C 63.335017,38.547219 62.306536,37.199378 63.947329,34.260347 64.751816,32.819329 89.956078,9.917609 97.924352,11.35151 c 6.692968,1.204409 3.999488,1.253453 -2.107767,3.018118 -7.830198,2.262502 -25.769493,18.304732 -27.687071,22.179399 0,0.94071 4.567713,5.946785 5.640565,6.917695 2.083165,-1.73994 1.324594,-1.355042 5.726724,-5.818534 8.486037,-8.604325 21.574167,-17.216716 29.449787,-17.685109 3.7386,-0.222349 4.41433,1.582052 0.77538,2.395612 -3.44304,0.76976 -12.80976,6.645912 -18.815793,10.67144 -2.77938,1.862872 -6.727161,5.67946 -9.058225,8.233411 l -4.547179,4.981964 2.861016,2.43795 c 1.64922,1.405346 3.146388,2.84473 3.6609,2.84473 0.514512,0 3.776444,-2.65759 7.248738,-5.90575 7.383923,-6.9073 17.435423,-12.19507 24.465623,-12.870583 5.36941,-0.515933 6.9476,1.064668 2.24222,2.245643 -1.50357,0.377371 -5.67489,1.554995 -9.76679,3.445564 -5.82214,2.69 -9.41191,5.742846 -15.04564,11.600246 -5.721701,5.567576 -6.756063,9.347241 -13.238998,4.98488 -2.023495,-1.375 -3.943135,-2.5 -4.265868,-2.5 -0.945589,0 -8.091109,10.215757 -9.706208,9.232534 -5.818489,6.203217 -14.513338,15.580336 -19.371147,21.767466 -20.998448,26.744594 -22.094418,28.000004 -24.444038,28.000004 -1.21747,0 -2.44318,-0.59834 -2.7238,-1.32964 z"
     id="path4143"
     inkscape:connector-curvature="0"
     sodipodi:nodetypes="sscscccssccssssscsssssscccccss" />
</svg>
