<?xml version="1.0" encoding="UTF-8" standalone="no"?>
<!-- Created with Inkscape (http://www.inkscape.org/) -->

<svg
   xmlns:dc="http://purl.org/dc/elements/1.1/"
   xmlns:cc="http://creativecommons.org/ns#"
   xmlns:rdf="http://www.w3.org/1999/02/22-rdf-syntax-ns#"
   xmlns:svg="http://www.w3.org/2000/svg"
   xmlns="http://www.w3.org/2000/svg"
   xmlns:sodipodi="http://sodipodi.sourceforge.net/DTD/sodipodi-0.dtd"
   xmlns:inkscape="http://www.inkscape.org/namespaces/inkscape"
   id="svg2"
   version="1.1"
   inkscape:version="0.91 r13725"
   width="128"
   height="128"
   viewBox="0 0 128 128"
   sodipodi:docname="ibadi_rebels.svg"
   inkscape:export-filename=".\sunni_rebels.png"
   inkscape:export-xdpi="90"
   inkscape:export-ydpi="90">
  <metadata
     id="metadata8">
    <rdf:RDF>
      <cc:Work
         rdf:about="">
        <dc:format>image/svg+xml</dc:format>
        <dc:type
           rdf:resource="http://purl.org/dc/dcmitype/StillImage" />
        <dc:title />
      </cc:Work>
    </rdf:RDF>
  </metadata>
  <defs
     id="defs6" />
  <sodipodi:namedview
     pagecolor="#ffffff"
     bordercolor="#666666"
     borderopacity="1"
     objecttolerance="10"
     gridtolerance="10"
     guidetolerance="10"
     inkscape:pageopacity="0"
     inkscape:pageshadow="2"
     inkscape:window-width="1103"
     inkscape:window-height="948"
     id="namedview4"
     showgrid="false"
     inkscape:zoom="5.2149125"
     inkscape:cx="61.71171"
     inkscape:cy="64"
     inkscape:window-x="664"
     inkscape:window-y="44"
     inkscape:window-maximized="0"
     inkscape:current-layer="svg2" />
  <path
     style="fill:#000000;fill-rule:evenodd;stroke:none;stroke-width:1px;stroke-linecap:butt;stroke-linejoin:miter;stroke-opacity:1;fill-opacity:1"
     d="M 0,0 128,128 0,128 Z"
     id="path3340"
     inkscape:connector-curvature="0"
     sodipodi:nodetypes="cccc" />
  <path
     style="fill:#226595;fill-rule:evenodd;stroke:none;stroke-width:1px;stroke-linecap:butt;stroke-linejoin:miter;stroke-opacity:1;fill-opacity:1"
     d="M 0,0 128,128 128,0 Z"
     id="path3342"
     inkscape:connector-curvature="0"
     sodipodi:nodetypes="cccc"
     inkscape:export-xdpi="90"
     inkscape:export-ydpi="90"
     inkscape:export-filename="./ibadi_rebels.png" />
  <g
     id="g4164"
     transform="translate(-16.154746,-29.483599)"
     style="stroke:none;fill:#ffffff;fill-opacity:1">
    <path
       id="path4159"
       d="M 75.698048,52.805869 A 40.677963,40.677963 0 0 0 35.020313,93.483603 40.677963,40.677963 0 0 0 75.698048,134.16133 40.677963,40.677963 0 0 0 111.65703,112.44454 29.55932,29.55932 0 0 1 88.985157,123.0422 29.55932,29.55932 0 0 1 59.426563,93.483603 29.55932,29.55932 0 0 1 88.985157,63.925009 29.55932,29.55932 0 0 1 111.71563,74.626181 40.677963,40.677963 0 0 0 75.698048,52.805869 Z"
       style="fill:#ffffff;fill-opacity:1;stroke:none;stroke-width:6.5;stroke-linejoin:miter;stroke-miterlimit:4;stroke-dasharray:none;stroke-opacity:1"
       inkscape:connector-curvature="0" />
    <path
       stroke-miterlimit="4"
       id="path2634"
       d="m 125.27155,103.64812 -11.87313,-2.84279 -7.9503,9.26529 -0.96535,-12.170504 -11.268597,-4.698055 11.276527,-4.678989 0.98593,-12.168854 7.93462,9.27873 11.87793,-2.822707 -6.37266,10.413559 6.35503,10.42432 z"
       inkscape:connector-curvature="0"
       style="fill:#ffffff;fill-rule:nonzero;stroke:none;stroke-width:0.19529662;stroke-miterlimit:4;stroke-dashoffset:0;fill-opacity:1" />
  </g>
</svg>
