<?xml version="1.0" encoding="UTF-8" standalone="no"?>
<!-- Created with Inkscape (http://www.inkscape.org/) -->

<svg
   xmlns:dc="http://purl.org/dc/elements/1.1/"
   xmlns:cc="http://creativecommons.org/ns#"
   xmlns:rdf="http://www.w3.org/1999/02/22-rdf-syntax-ns#"
   xmlns:svg="http://www.w3.org/2000/svg"
   xmlns="http://www.w3.org/2000/svg"
   xmlns:sodipodi="http://sodipodi.sourceforge.net/DTD/sodipodi-0.dtd"
   xmlns:inkscape="http://www.inkscape.org/namespaces/inkscape"
   id="svg2"
   version="1.1"
   inkscape:version="0.91 r13725"
   width="128"
   height="128"
   viewBox="0 0 128 128"
   sodipodi:docname="revolutionary_rebels.svg"
   inkscape:export-filename=".\revolutionary_rebels.png"
   inkscape:export-xdpi="90"
   inkscape:export-ydpi="90">
  <metadata
     id="metadata8">
    <rdf:RDF>
      <cc:Work
         rdf:about="">
        <dc:format>image/svg+xml</dc:format>
        <dc:type
           rdf:resource="http://purl.org/dc/dcmitype/StillImage" />
        <dc:title />
      </cc:Work>
    </rdf:RDF>
  </metadata>
  <defs
     id="defs6" />
  <sodipodi:namedview
     pagecolor="#ffffff"
     bordercolor="#666666"
     borderopacity="1"
     objecttolerance="10"
     gridtolerance="10"
     guidetolerance="10"
     inkscape:pageopacity="0"
     inkscape:pageshadow="2"
     inkscape:window-width="1506"
     inkscape:window-height="948"
     id="namedview4"
     showgrid="false"
     inkscape:zoom="5.2149125"
     inkscape:cx="72.791167"
     inkscape:cy="64"
     inkscape:window-x="256"
     inkscape:window-y="52"
     inkscape:window-maximized="0"
     inkscape:current-layer="svg2" />
  <rect
     style="fill:#280000;fill-opacity:1;stroke:none;stroke-width:14;stroke-linejoin:miter;stroke-miterlimit:4;stroke-dasharray:none;stroke-opacity:1"
     id="rect4135"
     width="128"
     height="128"
     x="0"
     y="0" />
  <path
     style="fill:#000000;fill-rule:evenodd;stroke:none;stroke-width:1px;stroke-linecap:butt;stroke-linejoin:miter;stroke-opacity:1;fill-opacity:1"
     d="M 0,0 128,128 0,128 Z"
     id="path3340"
     inkscape:connector-curvature="0"
     sodipodi:nodetypes="cccc" />
  <path
     style="fill:#ffffff;fill-opacity:1"
     d="m 57.048198,109.40273 c -2.34452,-0.80614 -4.814137,-1.82569 -5.488038,-2.26568 -2.091308,-1.36536 -2.867378,-4.85412 -2.046055,-9.197863 0.433329,-2.29175 1.316831,-7.520289 1.96334,-11.618958 l 1.175463,-7.452125 -2.543667,-1.852935 C 48.710221,75.996054 46.944638,73.961487 46.185724,72.493907 45.426811,71.02633 42.770366,67.499488 40.282517,64.65648 33.533303,56.943778 32.8819,55.40024 34.415332,50.753892 35.955474,46.087213 41.506708,39.576177 46.01555,37.148008 c 3.056852,-1.646225 3.952878,-1.692135 11.664096,-0.597665 12.320219,1.748639 12.602283,1.832348 12.602283,3.74003 0,5.593764 -15.728338,10.20069 -17.657978,5.172131 -0.410508,-1.069765 -0.904085,-0.646508 -1.838994,1.576984 -0.702838,1.671562 -1.277888,3.202883 -1.277888,3.402941 0,0.200061 2.304569,0.363738 5.121264,0.363738 6.449136,0 10.146791,2.768106 11.976801,8.965959 1.363374,4.617468 2.273903,5.298278 3.196852,2.39032 0.692667,-2.1824 5.298972,-5.690408 7.471977,-5.690408 1.685422,0 2.02208,-1.458683 0.547057,-2.370298 -1.830107,-1.131068 0.133358,-2.3331 3.606883,-2.208119 1.919973,0.06907 5.490882,0.522065 7.384434,-0.543695 2.38779,-1.343936 1.671096,-0.624815 2.245294,-4.814065 0.325547,-2.375137 0.591911,-6.171354 0.591911,-8.436035 0,-2.264685 0.424936,-4.117604 0.944303,-4.117604 1.582377,1.070108 1.201722,2.247865 1.391937,4.721558 0.47479,10.617858 0.512662,15.322796 -1.080758,21.189475 -1.049697,3.864787 -2.075748,8.032859 -2.688665,9.913616 -0.612913,1.880756 -2.524359,4.702602 -4.247652,6.270763 l -3.133263,2.851208 1.358944,6.005289 c 1.669141,7.376061 2.92442,14.719825 3.016217,17.645749 0.08459,2.69571 -5.280602,8.41199 -6.629373,7.06321 -1.256531,-1.25653 -2.716164,-23.537575 -1.76029,-26.870506 0.534256,-1.862846 0.428789,-2.726319 -0.342204,-2.801676 -0.61296,-0.05989 -1.53941,-0.207654 -2.05878,-0.328322 -0.519374,-0.120675 -1.679862,-0.284126 -2.578868,-0.363229 -0.899005,-0.07911 -1.90119,-1.206186 -2.227074,-2.504615 -0.73359,-2.922857 -0.927079,-2.922967 -3.502083,-0.0018 -1.143675,1.297345 -3.779169,3.192643 -5.856655,4.211776 l -3.777248,1.852973 6.374106,0.03764 c 3.505758,0.02063 6.409515,0.356329 6.452795,0.745859 0.04327,0.38953 0.229583,1.558113 0.413973,2.596856 0.184399,1.038743 0.965467,6.018322 1.735699,11.06573 0.770231,5.047404 1.647674,9.577164 1.949872,10.066134 0.3022,0.48897 0.282119,1.58569 -0.04462,2.43717 -0.486052,1.26662 -1.817401,1.5057 -7.321484,1.31483 -3.700073,-0.12833 -8.645651,-0.89288 -10.990174,-1.69901 z M 71.460929,48.723728 c -0.973418,-1.172899 -1.010062,-2.029883 -0.16601,-3.882385 1.492961,-3.276697 1.355689,-6.552495 -0.333322,-7.95425 -1.035217,-0.859157 -1.891432,-3.707163 -1.880865,-8.971285 0.008,-3.961534 0.347783,-7.727568 0.755176,-8.36896 0.407395,-0.641394 3.27687,-1.082942 4.890813,-1.405732 4.195605,-0.839119 6.071593,1.897347 5.550904,8.777378 -0.213383,2.819447 -0.431506,8.313319 -0.484731,12.208605 -0.05324,3.895285 -0.413225,7.579823 -0.800001,8.187859 -1.248268,1.962346 -6.164049,3.057014 -7.531964,1.40877 z m 11.052168,-1.442644 c -1.843784,-2.343992 -0.778698,-4.986933 -0.493089,-13.827302 0.270034,-8.35825 0.579482,-9.957477 2.148504,-11.103462 2.259926,-1.650609 3.262727,-1.133444 5.444569,0.461951 1.430517,1.046025 1.713991,2.382746 1.551961,7.318416 -0.3675,11.194225 -0.948336,16.106968 -2.063156,17.450244 -1.573069,1.895433 -4.277777,2.638119 -6.588789,-0.299847 z m -43.658055,-8.43128 c -1.138647,-2.937424 0.273924,-12.461923 2.808173,-15.473706 1.996475,-2.372674 3.194257,-2.836064 5.922789,-2.601344 3.639161,0.313057 4.225566,1.070331 5.705414,7.367931 1.290883,5.493444 1.479999,5.930179 -5.23412,6.16617 -3.233737,0.113668 -6.738998,3.891069 -7.444227,4.788627 -0.975841,1.241972 -1.192415,1.21146 -1.758029,-0.247678 z M 60.366656,35.30913 56.098209,34.225815 55.82058,26.833255 c -0.311827,-8.303177 1.158769,-9.936772 6.481915,-9.99228 4.417915,-0.04607 5.146499,1.375408 5.146499,10.040879 0,9.145035 -0.889451,10.203396 -7.082338,8.427276 z"
     id="path4143"
     inkscape:connector-curvature="0"
     sodipodi:nodetypes="cssscsssssssssssssssssssccssscsssscsssssccssscssccssssssssssssssssssssssssscssss" />
</svg>
