<?xml version="1.0" encoding="UTF-8" standalone="no"?>
<!-- Created with Inkscape (http://www.inkscape.org/) -->

<svg
   xmlns:dc="http://purl.org/dc/elements/1.1/"
   xmlns:cc="http://creativecommons.org/ns#"
   xmlns:rdf="http://www.w3.org/1999/02/22-rdf-syntax-ns#"
   xmlns:svg="http://www.w3.org/2000/svg"
   xmlns="http://www.w3.org/2000/svg"
   xmlns:sodipodi="http://sodipodi.sourceforge.net/DTD/sodipodi-0.dtd"
   xmlns:inkscape="http://www.inkscape.org/namespaces/inkscape"
   id="svg2"
   version="1.1"
   inkscape:version="0.91 r13725"
   width="128"
   height="128"
   viewBox="0 0 128 128"
   sodipodi:docname="tengri_pagan_reformed.svg"
   inkscape:export-filename="./tengri_pagan_reformed.png"
   inkscape:export-xdpi="90"
   inkscape:export-ydpi="90">
  <metadata
     id="metadata8">
    <rdf:RDF>
      <cc:Work
         rdf:about="">
        <dc:format>image/svg+xml</dc:format>
        <dc:type
           rdf:resource="http://purl.org/dc/dcmitype/StillImage" />
        <dc:title />
      </cc:Work>
    </rdf:RDF>
  </metadata>
  <defs
     id="defs6" />
  <sodipodi:namedview
     pagecolor="#ffffff"
     bordercolor="#666666"
     borderopacity="1"
     objecttolerance="10"
     gridtolerance="10"
     guidetolerance="10"
     inkscape:pageopacity="0"
     inkscape:pageshadow="2"
     inkscape:window-width="1268"
     inkscape:window-height="999"
     id="namedview4"
     showgrid="false"
     inkscape:zoom="3.6875"
     inkscape:cx="63.137213"
     inkscape:cy="64"
     inkscape:window-x="530"
     inkscape:window-y="65"
     inkscape:window-maximized="0"
     inkscape:current-layer="svg2"
     inkscape:snap-bbox="true"
     inkscape:bbox-paths="false"
     inkscape:bbox-nodes="false"
     inkscape:snap-bbox-edge-midpoints="false"
     inkscape:snap-midpoints="false" />
  <path
     style="fill:#000000;fill-rule:evenodd;stroke:none;stroke-width:1px;stroke-linecap:butt;stroke-linejoin:miter;stroke-opacity:1;fill-opacity:1"
     d="M 0,0 128,128 0,128 Z"
     id="path3340"
     inkscape:connector-curvature="0"
     sodipodi:nodetypes="cccc" />
  <path
     style="fill:#44515c;fill-rule:evenodd;stroke:none;stroke-width:1px;stroke-linecap:butt;stroke-linejoin:miter;stroke-opacity:1;fill-opacity:1"
     d="M 0,0 128,128 128,0 Z"
     id="path3342"
     inkscape:connector-curvature="0"
     sodipodi:nodetypes="cccc"
     inkscape:export-xdpi="90"
     inkscape:export-ydpi="90"
     inkscape:export-filename="./catholic_rebels.png" />
  <path
     style="fill:#ffffff;fill-opacity:1;stroke:#ffffff;stroke-width:2;stroke-linejoin:round;stroke-miterlimit:4;stroke-dasharray:none;stroke-opacity:1"
     d="M 60.936139,96.7886 C 60.880699,96.7029 60.816153,92.028244 60.792711,86.400402 L 60.750091,76.167959 59.9319,76.084129 C 56.753935,75.758541 52.901315,74.799693 49.842761,73.573125 47.622717,72.682824 43.700474,70.704291 43.328823,70.287236 43.294553,70.248786 42.8507,69.944353 42.342474,69.61072 41.410264,68.998755 39.530322,67.56839 38.72967,66.861894 37.54794,65.819137 34.92618,63.088842 33.997338,61.933656 31.844446,59.25614 30.059496,56.28584 28.455033,52.710814 c -0.661172,-1.473206 -1.767771,-4.966187 -2.190837,-6.915382 -0.364648,-1.680041 -0.792378,-5.148547 -0.545481,-4.423355 0.035,0.102798 0.136795,0.355116 0.226217,0.560708 0.08942,0.205592 0.316317,0.794334 0.504212,1.308315 0.187896,0.513981 0.41384,1.130759 0.502098,1.370616 0.260644,0.708343 2.073278,4.294959 2.194171,4.341554 0.06108,0.02354 0.257058,0.331931 0.435511,0.685309 0.178453,0.353378 0.485129,0.876892 0.681503,1.163363 0.196373,0.28647 0.357043,0.578055 0.357043,0.647966 0,0.06991 0.07417,0.171949 0.164827,0.226753 0.09065,0.0548 0.434409,0.492137 0.763897,0.971852 0.329489,0.479717 0.767849,1.040423 0.974135,1.246016 0.206285,0.205592 0.499751,0.570052 0.652147,0.809909 0.29878,0.470257 3.537642,3.757388 4.75852,4.829437 0.41044,0.36041 0.993402,0.819336 1.29547,1.019837 0.302068,0.200503 0.684383,0.490925 0.849588,0.645385 0.370997,0.346864 2.094851,1.479837 2.251619,1.479837 0.06301,0 0.159396,0.07316 0.214199,0.162586 0.122716,0.200233 0.808258,0.621592 1.766631,1.085835 0.398467,0.19302 0.807915,0.434373 0.909883,0.536342 0.19664,0.196639 3.6798,1.70408 3.937523,1.70408 0.08348,0 0.151785,0.04908 0.151785,0.109059 0,0.125816 2.280931,0.875623 3.924948,1.290241 0.616777,0.155552 1.149448,0.318357 1.183714,0.36179 0.166676,0.211275 3.068139,0.650431 4.641406,0.702508 l 1.71327,0.05671 0,-16.067225 c 0,-8.836974 0.03721,-19.104271 0.08269,-22.816216 l 0.08269,-6.748989 2.952692,0 2.952693,0 0.07857,0.654158 c 0.04321,0.359787 0.07906,10.620721 0.07966,22.802076 l 0.0011,22.147917 1.469084,0 c 1.456071,0 4.984557,-0.509489 5.13315,-0.741191 0.03517,-0.05484 0.260195,-0.139512 0.500052,-0.188159 1.089948,-0.221052 4.511897,-1.283863 4.610256,-1.431882 0.03426,-0.05157 0.37069,-0.21139 0.747609,-0.355162 1.738737,-0.663226 2.990065,-1.222806 3.115038,-1.393011 0.03426,-0.04667 0.657429,-0.398336 1.384805,-0.781487 0.727379,-0.383151 1.478503,-0.841212 1.669165,-1.017911 0.190662,-0.1767 0.399648,-0.321273 0.464411,-0.321273 0.173746,0 1.59028,-1.014975 1.59028,-1.139466 0,-0.0586 0.06016,-0.106549 0.133697,-0.106549 0.149107,0 1.566008,-1.079951 2.588187,-1.972698 1.137445,-0.993416 4.380401,-4.285197 4.380401,-4.44635 0,-0.06715 1.195244,-1.546656 1.357252,-1.680049 0.155914,-0.128374 1.134779,-1.612174 1.134779,-1.720138 0,-0.06187 0.14507,-0.269029 0.322378,-0.460348 0.352808,-0.380686 1.671245,-2.674605 1.671245,-2.907763 0,-0.07976 0.05513,-0.145015 0.122502,-0.145015 0.137796,0 0.621292,-0.909388 1.008952,-1.897677 0.14166,-0.361159 0.41296,-0.965042 0.60288,-1.341962 0.18991,-0.376919 0.55605,-1.319635 0.81362,-2.094924 0.25757,-0.775289 0.4936,-1.384328 0.52451,-1.353423 0.0763,0.07633 -0.28125,2.60196 -0.58524,4.133656 -1.1769,5.929888 -3.839861,11.619005 -7.734657,16.524199 -1.237915,1.55906 -4.503201,4.851218 -5.966702,6.015804 -5.633832,4.48315 -13.393464,7.676648 -20.029691,8.243276 l -1.027963,0.08777 -0.0017,10.107783 c -9.43e-4,5.55928 -0.03551,10.233944 -0.07683,10.388134 l -0.07513,0.28036 -2.906249,0 c -2.18817,0 -2.931157,-0.0385 -3.007054,-0.15576 l -6e-6,0 z"
     id="path3767"
     inkscape:connector-curvature="0" />
</svg>
