<?xml version="1.0" encoding="UTF-8" standalone="no"?>
<!-- Created with Inkscape (http://www.inkscape.org/) -->

<svg
   xmlns:dc="http://purl.org/dc/elements/1.1/"
   xmlns:cc="http://creativecommons.org/ns#"
   xmlns:rdf="http://www.w3.org/1999/02/22-rdf-syntax-ns#"
   xmlns:svg="http://www.w3.org/2000/svg"
   xmlns="http://www.w3.org/2000/svg"
   xmlns:sodipodi="http://sodipodi.sourceforge.net/DTD/sodipodi-0.dtd"
   xmlns:inkscape="http://www.inkscape.org/namespaces/inkscape"
   id="svg2"
   version="1.1"
   inkscape:version="0.91 r13725"
   width="128"
   height="128"
   viewBox="0 0 128 128"
   sodipodi:docname="TUR.svg"
   inkscape:export-filename=".\TUR.png"
   inkscape:export-xdpi="90"
   inkscape:export-ydpi="90">
  <metadata
     id="metadata8">
    <rdf:RDF>
      <cc:Work
         rdf:about="">
        <dc:format>image/svg+xml</dc:format>
        <dc:type
           rdf:resource="http://purl.org/dc/dcmitype/StillImage" />
        <dc:title />
      </cc:Work>
    </rdf:RDF>
  </metadata>
  <defs
     id="defs6" />
  <sodipodi:namedview
     pagecolor="#ffffff"
     bordercolor="#666666"
     borderopacity="1"
     objecttolerance="10"
     gridtolerance="10"
     guidetolerance="10"
     inkscape:pageopacity="0"
     inkscape:pageshadow="2"
     inkscape:window-width="1576"
     inkscape:window-height="999"
     id="namedview4"
     showgrid="false"
     inkscape:zoom="4"
     inkscape:cx="-13.262957"
     inkscape:cy="74"
     inkscape:window-x="234"
     inkscape:window-y="82"
     inkscape:window-maximized="0"
     inkscape:current-layer="layer1" />
  <g
     inkscape:groupmode="layer"
     id="layer1"
     inkscape:label="Layer 1"
     style="display:inline">
    <rect
       style="fill:#aa0006;fill-opacity:1;stroke:none;stroke-width:1;stroke-linejoin:miter;stroke-miterlimit:4;stroke-dasharray:none;stroke-opacity:1"
       id="rect4163"
       width="128"
       height="128"
       x="0"
       y="3.8146973e-006" />
    <g
       id="g4142"
       transform="translate(8.2802394,-6.2499455)">
      <path
         stroke-miterlimit="4"
         id="path2634"
         d="m 90.268841,72.535343 -9.659526,-2.312783 -6.468059,7.537878 -0.785371,-9.901446 -9.16769,-3.822155 9.174147,-3.806644 0.80211,-9.900108 6.4553,7.548815 9.663424,-2.296445 -5.184544,8.472068 5.170208,8.48082 z"
         inkscape:connector-curvature="0"
         style="fill:#ffffff;fill-rule:nonzero;stroke:#bd0308;stroke-width:0.12800001;stroke-miterlimit:4;stroke-dashoffset:0" />
      <path
         id="path241"
         d="m 37.615783,64.000001 c 0,-11.850882 9.709974,-21.457281 21.560322,-21.457281 2.007676,0 3.943568,0.294934 5.786772,0.811947 -4.645333,-3.85632 -10.611306,-6.176536 -17.120639,-6.176536 -14.813122,0 -26.820801,12.009923 -26.820801,26.82187 0,14.813015 12.007679,26.821759 26.820801,26.821759 6.508799,0 12.474876,-2.320105 17.119571,-6.175469 -1.843197,0.51595 -3.777917,0.811309 -5.785704,0.811309 -11.850241,1.03e-4 -21.560322,-9.60672 -21.560322,-21.457599 z"
         inkscape:connector-curvature="0"
         style="fill:#ffffff" />
    </g>
  </g>
  <g
     inkscape:groupmode="layer"
     id="layer2"
     inkscape:label="Layer 2" />
</svg>
