<?xml version="1.0" encoding="UTF-8" standalone="no"?>
<!-- Created with Inkscape (http://www.inkscape.org/) -->

<svg
   xmlns:dc="http://purl.org/dc/elements/1.1/"
   xmlns:cc="http://creativecommons.org/ns#"
   xmlns:rdf="http://www.w3.org/1999/02/22-rdf-syntax-ns#"
   xmlns:svg="http://www.w3.org/2000/svg"
   xmlns="http://www.w3.org/2000/svg"
   xmlns:sodipodi="http://sodipodi.sourceforge.net/DTD/sodipodi-0.dtd"
   xmlns:inkscape="http://www.inkscape.org/namespaces/inkscape"
   id="svg2"
   version="1.1"
   inkscape:version="0.91 r13725"
   width="128"
   height="128"
   viewBox="0 0 128 128"
   sodipodi:docname="TUR.svg"
   inkscape:export-filename=".\TUR.png"
   inkscape:export-xdpi="90"
   inkscape:export-ydpi="90">
  <metadata
     id="metadata8">
    <rdf:RDF>
      <cc:Work
         rdf:about="">
        <dc:format>image/svg+xml</dc:format>
        <dc:type
           rdf:resource="http://purl.org/dc/dcmitype/StillImage" />
        <dc:title />
      </cc:Work>
    </rdf:RDF>
  </metadata>
  <defs
     id="defs6" />
  <sodipodi:namedview
     pagecolor="#ffffff"
     bordercolor="#666666"
     borderopacity="1"
     objecttolerance="10"
     gridtolerance="10"
     guidetolerance="10"
     inkscape:pageopacity="0"
     inkscape:pageshadow="2"
     inkscape:window-width="1576"
     inkscape:window-height="999"
     id="namedview4"
     showgrid="false"
     inkscape:zoom="4"
     inkscape:cx="61.487043"
     inkscape:cy="74"
     inkscape:window-x="131"
     inkscape:window-y="54"
     inkscape:window-maximized="0"
     inkscape:current-layer="layer1" />
  <g
     inkscape:groupmode="layer"
     id="layer1"
     inkscape:label="Layer 1"
     style="display:inline">
    <rect
       style="fill:#e30a17;fill-opacity:1;stroke:none;stroke-width:1;stroke-linejoin:miter;stroke-miterlimit:4;stroke-dasharray:none;stroke-opacity:1"
       id="rect4163"
       width="128"
       height="128"
       x="0"
       y="3.8146973e-006" />
    <g
       style=""
       id="g4156"
       transform="matrix(0.10666667,0,0,0.10666667,31.255139,53.355029)">
      <rect
         id="rect238"
         y="-300.2034"
         x="-293.01694"
         height="800"
         width="1200"
         style="fill:#e30a17" />
      <path
         stroke-miterlimit="4"
         id="path2634"
         d="m 553.25344,179.81544 -90.55805,-21.68234 -60.63806,70.6676 -7.36285,-92.82605 -85.94709,-35.8327 86.00763,-35.68729 7.51978,-92.81351 60.51843,70.77014 90.5946,-21.52917 -48.6051,79.42563 48.4707,79.50769 z"
         inkscape:connector-curvature="0"
         style="fill:#ffffff;fill-rule:nonzero;stroke:#bd0308;stroke-width:1.20000005;stroke-miterlimit:4;stroke-dashoffset:0" />
      <path
         id="path241"
         d="m 59.631031,99.79661 c 0,-111.10202 91.031009,-201.162 202.128019,-201.162 18.82196,0 36.97095,2.765 54.25098,7.612 -43.54999,-36.153 -99.48099,-57.90502 -160.50598,-57.90502 -138.873019,0 -251.444999,112.59302 -251.444999,251.45502 0,138.87201 112.57198,251.45398 251.444999,251.45398 61.01999,0 116.95196,-21.75098 160.49597,-57.89502 -17.27997,4.83703 -35.41797,7.60602 -54.24097,7.60602 C 150.66304,300.96256 59.631031,210.8986 59.631031,99.79661 Z"
         inkscape:connector-curvature="0"
         style="fill:#ffffff" />
    </g>
  </g>
  <g
     inkscape:groupmode="layer"
     id="layer2"
     inkscape:label="Layer 2" />
</svg>
